<?xml version="1.0" standalone="no"?>
<!DOCTYPE svg PUBLIC "-//W3C//DTD SVG 20010904//EN"
 "http://www.w3.org/TR/2001/REC-SVG-20010904/DTD/svg10.dtd">
<svg version="1.0" xmlns="http://www.w3.org/2000/svg"
 width="90.000000pt" height="90.000000pt" viewBox="0 0 90.000000 90.000000"
 preserveAspectRatio="xMidYMid meet">

<g transform="translate(0.000000,90.000000) scale(0.100000,-0.100000)"
fill="#000000" stroke="none">
<path d="M333 836 c-194 -63 -321 -267 -284 -457 27 -135 108 -242 230 -302
61 -30 72 -32 171 -32 99 0 110 2 171 32 123 61 205 169 230 305 31 170 -64
349 -229 430 -56 28 -77 33 -156 35 -57 2 -107 -2 -133 -11z m107 -26 c0 -16
5 -30 10 -30 6 0 10 14 10 31 0 24 4 29 18 26 9 -3 35 -8 56 -12 144 -24 285
-175 303 -324 l6 -51 -34 -2 -34 -1 34 -4 34 -4 -6 -51 c-18 -148 -159 -299
-303 -323 -21 -4 -47 -9 -56 -12 -14 -3 -18 2 -18 26 0 17 -4 31 -10 31 -5 0
-10 -14 -10 -31 0 -24 -4 -29 -17 -26 -10 3 -36 8 -57 12 -144 24 -285 175
-303 324 l-6 51 34 2 34 1 -34 4 -34 4 6 51 c13 109 101 234 202 286 40 21
124 46 168 51 4 1 7 -12 7 -29z"/>
<path d="M496 572 l-118 -57 -59 -125 c-32 -68 -56 -126 -54 -129 3 -2 62 22
131 54 l126 59 45 95 c72 153 75 161 61 160 -7 0 -66 -26 -132 -57z m68 -69
c-24 -53 -47 -99 -50 -102 -2 -3 -30 20 -60 50 l-55 56 93 46 c51 25 98 46
105 46 7 1 -6 -39 -33 -96z"/>
</g>
</svg>
